<svg aria-hidden="true" style="position: absolute; width: 0; height: 0; overflow: hidden;" version="1.1" xmlns="http://www.w3.org/2000/svg" xmlns:xlink="http://www.w3.org/1999/xlink">
<defs>
<symbol id="icon-v" viewBox="0 0 52 32">
<path fill="" style="fill: " d="M3.372 6.375l22.628 22.628 22.628-22.628-2.828-2.828-19.8 19.8-19.8-19.8-2.828 2.828z"></path>
</symbol>
<symbol id="icon-close" viewBox="0 0 32 32">
<path d="M18.228 16l13.1-13.1c0.259-0.302 0.394-0.691 0.379-1.089s-0.18-0.775-0.462-1.056-0.659-0.446-1.056-0.462c-0.398-0.015-0.787 0.12-1.089 0.379l-13.1 13.1-13.1-13.116c-0.298-0.298-0.701-0.465-1.122-0.465s-0.824 0.167-1.122 0.465c-0.298 0.298-0.465 0.701-0.465 1.122s0.167 0.824 0.465 1.122l13.116 13.1-13.116 13.1c-0.165 0.142-0.3 0.316-0.395 0.512s-0.148 0.41-0.157 0.627 0.028 0.435 0.108 0.637c0.079 0.203 0.2 0.387 0.354 0.541s0.338 0.274 0.541 0.354 0.42 0.116 0.637 0.108c0.218-0.008 0.431-0.062 0.627-0.157s0.37-0.229 0.512-0.395l13.116-13.1 13.1 13.1c0.302 0.259 0.691 0.394 1.089 0.379s0.775-0.18 1.056-0.462 0.446-0.659 0.462-1.057c0.015-0.398-0.12-0.787-0.379-1.089l-13.1-13.1z"></path>
</symbol>
<symbol id="icon-cocktail-logo" viewBox="0 0 37 32">
<path d="M0.275 0h35.611v30.925h-35.611v-30.925z"></path>
</symbol>
<symbol id="icon-heart" viewBox="0 0 36 32">
<path  d="M17.882 32l-2.593-2.302c-9.209-8.144-15.289-13.515-15.289-20.107 0-5.371 4.328-9.591 9.835-9.591 3.112 0 6.098 1.413 8.047 3.645 1.949-2.232 4.936-3.645 8.047-3.645 5.508 0 9.835 4.22 9.835 9.591 0 6.592-6.080 11.963-15.289 20.124l-2.593 2.284z"></path>
<path  d="M17.882 28.631l-2.099-1.817c-7.455-6.429-12.377-10.67-12.377-15.874 0-4.24 3.503-7.572 7.962-7.572 2.519 0 4.936 1.115 6.514 2.877 1.578-1.762 3.995-2.877 6.514-2.877 4.459 0 7.962 3.332 7.962 7.572 0 5.204-4.922 9.444-12.377 15.888l-2.099 1.803z"></path>
</symbol>
<symbol id="icon-menu" viewBox="0 0 60 32">
<path d="M2 0h56c1.105 0 2 0.895 2 2s-0.895 2-2 2h-56c-1.105 0-2-0.895-2-2s0.895-2 2-2z"></path>
<path d="M2 14h56c1.105 0 2 0.895 2 2s-0.895 2-2 2h-56c-1.105 0-2-0.895-2-2s0.895-2 2-2z"></path>
<path d="M2 28h56c1.105 0 2 0.895 2 2s-0.895 2-2 2h-56c-1.105 0-2-0.895-2-2s0.895-2 2-2z"></path>
</symbol>
<symbol id="icon-search" viewBox="0 0 32 32">
<path fill="#fd5103" style="fill: var(--color1, #fd5103)" d="M13.333 24c2.367-0.001 4.665-0.793 6.529-2.251l5.861 5.861 1.885-1.885-5.861-5.861c1.459-1.864 2.251-4.163 2.252-6.531 0-5.881-4.785-10.667-10.667-10.667s-10.667 4.785-10.667 10.667c0 5.881 4.785 10.667 10.667 10.667zM13.333 5.333c4.412 0 8 3.588 8 8s-3.588 8-8 8c-4.412 0-8-3.588-8-8s3.588-8 8-8z"></path>
</symbol>
</defs>
</svg>
