<svg aria-hidden="true" style="position: absolute; width: 0; height: 0; overflow: hidden;" version="1.1" xmlns="http://www.w3.org/2000/svg" xmlns:xlink="http://www.w3.org/1999/xlink">
<defs>
<symbol id="icon-logo" viewBox="0 0 80 32">
<path d="M22.705 1.935c-0.122 0.046-1.387 0.564-2.819 1.158-2.789 1.158-3.84 1.813-6.872 4.297-3.246 2.667-5.867 5.455-7.68 8.137-1.265 1.905-2.621 4.632-2.834 5.714l-0.091 0.518 1.051-0.99c2.149-2.042 4.389-3.444 6.232-3.916 1.097-0.29 3.749-0.32 4.465-0.076 0.731 0.259 1.219 1.143 1.432 2.59 0.137 0.99 0.213 1.189 0.411 1.112 2.179-0.93 4.023-1.28 7.162-1.387 2.956-0.091 4.51 0.061 6.796 0.655 4.251 1.097 7.619 4.099 9.448 8.427 0.564 1.356 0.975 1.768 0.975 1.006 0-0.488 0.579-1.63 1.6-3.2 2.606-3.977 6.232-6.156 11.291-6.796 2.24-0.274 6.141-0.107 8.137 0.366 0.884 0.213 1.935 0.533 2.331 0.701 0.411 0.183 0.777 0.32 0.808 0.32s0.061-0.244 0.061-0.533c0-1.844 0.853-3.154 2.194-3.352 0.396-0.061 1.356-0.076 2.133-0.046 2.392 0.137 4.693 1.295 7.558 3.825 0.716 0.64 1.31 1.128 1.326 1.112 0.076-0.061-1.173-3.017-1.737-4.16-0.305-0.594-0.838-1.417-1.189-1.829-0.335-0.396-0.975-1.25-1.417-1.874-1.874-2.743-4.678-5.47-7.65-7.482-1.829-1.234-5.135-2.91-7.467-3.779l-1.6-0.61-0.091 0.731c-0.061 0.396-0.213 0.975-0.366 1.28-0.35 0.747-1.448 1.737-2.408 2.164-1.691 0.731-5.029 1.295-7.802 1.295h-1.097l-0.35-2.133c-0.366-2.21-0.625-2.697-0.838-1.57-0.061 0.381-0.305 0.762-0.701 1.143l-0.61 0.579h-2.331c-2.667 0-2.85-0.061-3.444-1.28-0.213-0.442-0.396-0.655-0.533-0.61-0.32 0.122-0.686 1.219-0.884 2.606l-0.168 1.265h-1.067c-1.585 0-4.876-0.411-6.187-0.777-2.423-0.686-4.053-1.905-4.495-3.368-0.122-0.442-0.229-0.914-0.229-1.067 0-0.29-0.061-0.305-0.457-0.168zM32.457 9.63c0.396 0.366 1.143 1.173 1.63 1.798 0.93 1.173 2.423 2.59 2.728 2.59 0.107 0 0.198-0.564 0.274-1.554 0.091-1.448 0.076-1.57-0.244-1.905-0.183-0.198-0.442-0.35-0.579-0.35-0.411 0-0.808-0.533-0.686-0.914 0.107-0.32 0.137-0.32 2.331-0.229 1.234 0.061 2.286 0.137 2.362 0.183 0.168 0.107 0.122 0.61-0.076 0.777-0.107 0.076-0.564 0.183-1.006 0.213-0.442 0.046-0.823 0.107-0.869 0.152-0.030 0.030-0.076 1.615-0.091 3.52l-0.030 3.459h-0.411c-0.411 0-1.173-0.762-2.24-2.24-0.259-0.366-0.823-0.96-1.234-1.341-0.427-0.381-0.93-0.93-1.097-1.219-0.61-0.99-0.762-0.731-0.762 1.295 0 2.042 0.046 2.133 1.234 2.347 0.533 0.091 1.036 0.457 0.869 0.64-0.076 0.061-3.063 0.091-4.587 0.030-0.549-0.030-0.579-0.061-0.533-0.488 0.046-0.457 0.076-0.472 0.96-0.549l0.914-0.076-0.030-2.042c-0.046-2.347-0.198-2.971-0.808-3.291-0.625-0.32-0.945-0.808-0.747-1.173 0.122-0.213 0.335-0.274 1.067-0.274 0.869 0 0.975 0.030 1.661 0.64zM48.091 9.676c0.442 0.29 0.914 0.747 1.189 1.189 0.396 0.64 0.442 0.823 0.411 2.011 0 0.96-0.091 1.509-0.335 2.042-0.549 1.28-0.792 1.417-3.185 1.844-1.341 0.229-4.267 0.244-4.907 0.015-1.067-0.35-0.564-0.93 0.869-0.99 0.427-0.030 0.853-0.091 0.945-0.137 0.168-0.107 0.259-4.51 0.107-5.029-0.061-0.198-0.244-0.259-0.823-0.259-0.869 0-1.219-0.107-1.219-0.396 0-0.213 0.427-0.488 1.051-0.67 0.213-0.061 1.463-0.107 2.773-0.091 2.362 0.015 2.377 0.015 3.124 0.472zM28.602 10.91c0.152 0.411-0.213 0.945-0.747 1.051-0.274 0.061-0.823 0.305-1.234 0.549-0.396 0.244-0.792 0.442-0.869 0.442-0.274 0-0.152 0.244 0.198 0.427 0.183 0.091 0.716 0.32 1.173 0.488 0.457 0.183 0.99 0.396 1.189 0.472 0.411 0.168 0.427 0.442 0.046 0.914-0.274 0.335-0.305 0.335-0.945 0.137-0.366-0.122-0.838-0.335-1.036-0.488s-0.442-0.274-0.564-0.274c-0.107 0-0.533-0.168-0.945-0.381-0.427-0.213-0.884-0.381-1.051-0.381-0.67 0-1.341-0.975-0.762-1.128 0.091-0.030 0.518-0.137 0.945-0.229 0.411-0.107 1.478-0.564 2.362-1.006 1.707-0.884 2.088-0.975 2.24-0.594zM52.51 11.109c1.89 0.914 2.636 1.234 2.941 1.234 0.335 0 0.93 0.488 0.93 0.762 0 0.198-0.427 0.396-1.082 0.518-0.29 0.046-1.158 0.411-1.905 0.792-1.722 0.884-2.408 1.128-2.651 0.975-0.32-0.198-0.046-0.899 0.427-1.067 0.655-0.229 2.453-1.128 2.469-1.234 0-0.046-0.29-0.213-0.64-0.366-0.366-0.152-0.93-0.396-1.265-0.533-0.335-0.152-0.731-0.305-0.869-0.35-0.335-0.122-0.35-0.396-0.030-0.838 0.305-0.442 0.594-0.427 1.676 0.107z"></path>
<path d="M44.8 10.743c-0.229 0.274-0.213 4.236 0.015 4.678 0.137 0.244 0.259 0.274 0.945 0.183 0.442-0.061 0.96-0.198 1.173-0.32 0.594-0.35 1.067-1.143 1.158-1.981 0.137-1.036-0.457-2.225-1.25-2.56-0.716-0.29-1.798-0.305-2.042 0z"></path>
</symbol>
<symbol id="icon-artage-io-530412_1673440827" viewBox="0 0 45 32">
<path fill="#275495" style="fill: var(--color1, #275495)" d="M-1.6 32h48v-32h-48z"></path>
<path fill="#fad120" style="fill: var(--color2, #fad120)" d="M-1.6 32h48v-16h-48z"></path>
</symbol>
<symbol id="icon-facebook2" viewBox="0 0 32 32">
<path d="M29 0h-26c-1.65 0-3 1.35-3 3v26c0 1.65 1.35 3 3 3h13v-14h-4v-4h4v-2c0-3.306 2.694-6 6-6h4v4h-4c-1.1 0-2 0.9-2 2v2h6l-1 4h-5v14h9c1.65 0 3-1.35 3-3v-26c0-1.65-1.35-3-3-3z"></path>
</symbol>
<symbol id="icon-instagram" viewBox="0 0 32 32">
<path d="M16 2.881c4.275 0 4.781 0.019 6.462 0.094 1.563 0.069 2.406 0.331 2.969 0.55 0.744 0.288 1.281 0.638 1.837 1.194 0.563 0.563 0.906 1.094 1.2 1.838 0.219 0.563 0.481 1.412 0.55 2.969 0.075 1.688 0.094 2.194 0.094 6.463s-0.019 4.781-0.094 6.463c-0.069 1.563-0.331 2.406-0.55 2.969-0.288 0.744-0.637 1.281-1.194 1.837-0.563 0.563-1.094 0.906-1.837 1.2-0.563 0.219-1.413 0.481-2.969 0.55-1.688 0.075-2.194 0.094-6.463 0.094s-4.781-0.019-6.463-0.094c-1.563-0.069-2.406-0.331-2.969-0.55-0.744-0.288-1.281-0.637-1.838-1.194-0.563-0.563-0.906-1.094-1.2-1.837-0.219-0.563-0.481-1.413-0.55-2.969-0.075-1.688-0.094-2.194-0.094-6.463s0.019-4.781 0.094-6.463c0.069-1.563 0.331-2.406 0.55-2.969 0.288-0.744 0.638-1.281 1.194-1.838 0.563-0.563 1.094-0.906 1.838-1.2 0.563-0.219 1.412-0.481 2.969-0.55 1.681-0.075 2.188-0.094 6.463-0.094zM16 0c-4.344 0-4.887 0.019-6.594 0.094-1.7 0.075-2.869 0.35-3.881 0.744-1.056 0.412-1.95 0.956-2.837 1.85-0.894 0.888-1.438 1.781-1.85 2.831-0.394 1.019-0.669 2.181-0.744 3.881-0.075 1.713-0.094 2.256-0.094 6.6s0.019 4.887 0.094 6.594c0.075 1.7 0.35 2.869 0.744 3.881 0.413 1.056 0.956 1.95 1.85 2.837 0.887 0.887 1.781 1.438 2.831 1.844 1.019 0.394 2.181 0.669 3.881 0.744 1.706 0.075 2.25 0.094 6.594 0.094s4.888-0.019 6.594-0.094c1.7-0.075 2.869-0.35 3.881-0.744 1.050-0.406 1.944-0.956 2.831-1.844s1.438-1.781 1.844-2.831c0.394-1.019 0.669-2.181 0.744-3.881 0.075-1.706 0.094-2.25 0.094-6.594s-0.019-4.887-0.094-6.594c-0.075-1.7-0.35-2.869-0.744-3.881-0.394-1.063-0.938-1.956-1.831-2.844-0.887-0.887-1.781-1.438-2.831-1.844-1.019-0.394-2.181-0.669-3.881-0.744-1.712-0.081-2.256-0.1-6.6-0.1v0z"></path>
<path d="M16 7.781c-4.537 0-8.219 3.681-8.219 8.219s3.681 8.219 8.219 8.219 8.219-3.681 8.219-8.219c0-4.537-3.681-8.219-8.219-8.219zM16 21.331c-2.944 0-5.331-2.387-5.331-5.331s2.387-5.331 5.331-5.331c2.944 0 5.331 2.387 5.331 5.331s-2.387 5.331-5.331 5.331z"></path>
<path d="M26.462 7.456c0 1.060-0.859 1.919-1.919 1.919s-1.919-0.859-1.919-1.919c0-1.060 0.859-1.919 1.919-1.919s1.919 0.859 1.919 1.919z"></path>
</symbol>
<symbol id="icon-twitter" viewBox="0 0 32 32">
<path d="M32 7.075c-1.175 0.525-2.444 0.875-3.769 1.031 1.356-0.813 2.394-2.1 2.887-3.631-1.269 0.75-2.675 1.3-4.169 1.594-1.2-1.275-2.906-2.069-4.794-2.069-3.625 0-6.563 2.938-6.563 6.563 0 0.512 0.056 1.012 0.169 1.494-5.456-0.275-10.294-2.888-13.531-6.862-0.563 0.969-0.887 2.1-0.887 3.3 0 2.275 1.156 4.287 2.919 5.463-1.075-0.031-2.087-0.331-2.975-0.819 0 0.025 0 0.056 0 0.081 0 3.181 2.263 5.838 5.269 6.437-0.55 0.15-1.131 0.231-1.731 0.231-0.425 0-0.831-0.044-1.237-0.119 0.838 2.606 3.263 4.506 6.131 4.563-2.25 1.762-5.075 2.813-8.156 2.813-0.531 0-1.050-0.031-1.569-0.094 2.913 1.869 6.362 2.95 10.069 2.95 12.075 0 18.681-10.006 18.681-18.681 0-0.287-0.006-0.569-0.019-0.85 1.281-0.919 2.394-2.075 3.275-3.394z"></path>
</symbol>
<symbol id="icon-github" viewBox="0 0 32 32">
<path d="M16 0.395c-8.836 0-16 7.163-16 16 0 7.069 4.585 13.067 10.942 15.182 0.8 0.148 1.094-0.347 1.094-0.77 0-0.381-0.015-1.642-0.022-2.979-4.452 0.968-5.391-1.888-5.391-1.888-0.728-1.849-1.776-2.341-1.776-2.341-1.452-0.993 0.11-0.973 0.11-0.973 1.606 0.113 2.452 1.649 2.452 1.649 1.427 2.446 3.743 1.739 4.656 1.33 0.143-1.034 0.558-1.74 1.016-2.14-3.554-0.404-7.29-1.777-7.29-7.907 0-1.747 0.625-3.174 1.649-4.295-0.166-0.403-0.714-2.030 0.155-4.234 0 0 1.344-0.43 4.401 1.64 1.276-0.355 2.645-0.532 4.005-0.539 1.359 0.006 2.729 0.184 4.008 0.539 3.054-2.070 4.395-1.64 4.395-1.64 0.871 2.204 0.323 3.831 0.157 4.234 1.026 1.12 1.647 2.548 1.647 4.295 0 6.145-3.743 7.498-7.306 7.895 0.574 0.497 1.085 1.47 1.085 2.963 0 2.141-0.019 3.864-0.019 4.391 0 0.426 0.288 0.925 1.099 0.768 6.354-2.118 10.933-8.113 10.933-15.18 0-8.837-7.164-16-16-16z"></path>
</symbol>
</defs>
</svg>
